<svg id="Capa_1" enable-background="new 0 0 512 512" height="512" viewBox="0 0 512 512" width="512" xmlns="http://www.w3.org/2000/svg"><g><g><g><g><g><path d="m128.548 128.868h254.952v254.584h-254.952z" fill="#fbf2e2"/></g><g><path d="m150.199 361.801v-232.933h-21.651v254.585h254.952v-21.652z" fill="#f7e0ba"/></g><g><path d="m233.434 82.254c-2.506-98.636-147.083-98.62-149.575.002-1.081 51.548 54.325 89.133 101.762 69.75l47.813 42.344z" fill="#9bb6f1"/></g><g><path d="m193.995 130.625c-47.437 19.383-102.843-18.203-101.762-69.75.159-6.294.904-12.181 2.146-17.672-6.26 10.604-10.13 23.621-10.52 39.053-1.081 51.548 54.325 89.133 101.762 69.75l47.813 42.344v-28.797z" fill="#6990eb"/></g><g><path d="m431.065 248.672c98.636-2.506 98.62-147.083-.002-149.575-51.548-1.081-89.133 54.325-69.75 101.762l-42.344 47.813z" fill="#6de89a"/></g><g><path d="m504.301 162.969c-12.859 73.634-75.852 64.035-137.446 63.873l18.58-20.98c-23.923-55.417 20.554-105.676 73.448-101.583-60.177-24.384-121.355 37.316-97.567 96.581l-42.344 47.813c18.795-.001 91.95.001 112.096 0 54.214-1.378 78.615-45.671 73.233-85.704z" fill="#2ce079"/></g><g><path d="m263.532 430.322c2.506 98.636 147.083 98.62 149.575-.002 1.081-51.548-54.325-89.133-101.762-69.75l-47.813-42.344z" fill="#ffc277"/></g><g><path d="m285.213 420.316v-82.889l-21.681-19.202v112.096c1.779 70.005 75.11 90.3 118.429 60.935-42.448 11.959-95.242-11.673-96.748-70.94z" fill="#ff905b"/></g><g><path d="m81.996 264.127c-98.636 2.506-98.62 147.083.002 149.575 51.548 1.081 89.133-54.325 69.75-101.762l42.344-47.813z" fill="#e08ea2"/></g><g><path d="m98.056 396.644c-69.68-1.76-90.125-74.441-61.342-117.836-49.835 37.317-34.735 132.872 45.285 134.894 25.607.537 47.764-12.869 61.208-32.309-12.463 9.736-28.036 15.61-45.151 15.251z" fill="#d15573"/></g><g><g><path d="m399.538 152.119-12.264-8.637c3.296-4.68 7.688-9.071 12.367-12.366l8.637 12.264c-3.258 2.295-6.445 5.48-8.74 8.739z" fill="#fff"/></g><g><path d="m419.514 137.903-4.275-14.377c6.434-1.914 12.841-2.229 17.099-2.148l-.27 14.998c-4.496-.081-8.968.462-12.554 1.527z" fill="#fff"/></g></g><g><g><path d="m307.829 407.536-12.264-8.639c3.298-4.681 7.689-9.073 12.367-12.366l8.637 12.264c-3.257 2.294-6.443 5.48-8.74 8.741z" fill="#fff"/></g><g><path d="m327.806 393.318-4.275-14.377c6.436-1.915 12.855-2.226 17.099-2.147l-.271 14.998c-4.51-.084-8.967.46-12.553 1.526z" fill="#fff"/></g></g><g><g><path d="m128.142 61.525-12.264-8.637c3.293-4.678 7.686-9.069 12.366-12.367l8.639 12.264c-3.261 2.297-6.447 5.483-8.741 8.74z" fill="#fff"/></g><g><path d="m148.117 47.309-4.275-14.377c6.438-1.914 12.856-2.221 17.1-2.147l-.271 14.998c-4.501-.086-8.966.459-12.554 1.526z" fill="#fff"/></g></g><g><path d="m52.526 317.165-12.262-8.639c3.298-4.681 7.689-9.072 12.366-12.365l8.637 12.264c-3.257 2.294-6.443 5.479-8.741 8.74z" fill="#fff"/></g><g><path d="m72.504 302.948-4.275-14.377c6.434-1.914 12.846-2.229 17.098-2.148l-.27 14.998c-4.5-.091-8.967.462-12.553 1.527z" fill="#fff"/></g></g></g></g><g><path d="m491.682 116.962c-14.876-16.99-35.963-25.971-60.981-25.971-20.461 0-40.127 7.843-55.374 22.084-2.593 2.422-5.01 4.995-7.26 7.685h-127.09v-39.13c0-25.121-8.943-46.294-25.862-61.23-14.9-13.155-34.875-20.4-56.245-20.4-21.371 0-41.349 7.245-56.252 20.401-16.922 14.937-25.866 36.11-25.866 61.23 0 27.012 11.444 51.068 31.398 66 4.142 3.099 8.539 5.74 13.148 7.933v100.776h-38.921c-25.332 0-46.686 8.965-61.756 25.925-13.298 14.967-20.621 35.037-20.621 56.514 0 21.478 7.324 41.552 20.624 56.522 15.071 16.965 36.426 25.932 61.756 25.932 6.528 0 12.272-.552 17.558-1.687l-3.13-14.696c-4.245.911-8.964 1.354-14.428 1.354-46.316 0-67.412-34.951-67.412-67.425 0-32.467 21.095-67.411 67.409-67.411h95.233l-34.317 38.907c15.717 32.585.984 73.754-32.598 89.812l6.457 13.559c11.216-5.385 20.74-13.132 28.257-22.35h110.634v39.073c0 25.121 8.943 46.294 25.862 61.23 14.9 13.155 34.876 20.4 56.245 20.4 21.371 0 41.348-7.245 56.251-20.401 16.922-14.938 25.866-36.111 25.866-61.231 0-24.068-10.899-46.873-29.543-62.638v-36.586h-14.968v26.411c-19.705-10.535-42.422-12.634-62.917-5.688l-56.796-50.504v74.904h-100.816c9.862-19.241 12.361-41.982 5.334-62.902l50.299-57.027h-74.594v-95.43c14.67 3.638 30.848 3.332 47.605-1.055l57.107 50.78v-74.847h117.02c-4.769 9.075-7.873 18.957-9.037 29.182l14.871 1.708c3.876-34.015 33.247-60.659 66.87-60.659 45.575 0 66.331 34.95 66.331 67.423 0 17.802-5.891 34.334-16.589 46.551-11.951 13.647-29.151 20.862-49.741 20.862h-95.233l34.317-38.907c-3.013-6.917-5.447-14.295-6.079-21.823l-14.898 1.46c.572 5.882 1.815 11.675 3.707 17.276l-50.297 57.024h73.535v30.174h14.968v-30.174h39.979c25.019 0 46.106-8.979 60.981-25.967 13.102-14.959 20.317-35.016 20.317-56.472 0-21.459-7.215-41.517-20.318-56.481zm-220.671 217.788 38.749 34.457c20.703-9.85 45.182-8.221 65.119 5.318 19.047 12.846 30.42 33.721 30.42 55.843 0 45.76-34.808 66.602-67.149 66.602-17.73 0-34.195-5.916-46.362-16.657-13.592-12-20.777-29.27-20.777-49.943zm-45.002-157.5-38.379-34.129c-25.565 8.74-52.201 6.576-70.535-7.542-16.126-12.067-25.375-31.731-25.375-53.949 0-45.759 34.809-66.601 67.15-66.601 17.73 0 34.195 5.916 46.362 16.656 13.592 12 20.777 29.27 20.777 49.943z"/><path d="m375.755 301.087h14.968v15.029h-14.968z"/></g></g></svg>